<mxfile host="Electron" modified="2022-05-18T07:44:33.164Z" agent="5.0 (Windows NT 10.0; Win64; x64) AppleWebKit/537.36 (KHTML, like Gecko) draw.io/18.0.4 Chrome/100.0.4896.143 Electron/18.2.3 Safari/537.36" etag="JmNlkK3En4Pz4CKS9Ck6" version="18.0.4" type="device" pages="2">
  <diagram id="a3TpG_nRwLeurYxLlEE_" name="Page-1">
    <mxGraphModel dx="593" dy="394" grid="1" gridSize="10" guides="1" tooltips="1" connect="1" arrows="1" fold="1" page="1" pageScale="1" pageWidth="520" pageHeight="250" math="0" shadow="0">
      <root>
        <mxCell id="0" />
        <mxCell id="1" parent="0" />
        <mxCell id="K2zTh3eD51Z4YKB7R2rv-2" value="1" style="rounded=0;whiteSpace=wrap;html=1;fillColor=#d5e8d4;strokeColor=#82b366;" vertex="1" parent="1">
          <mxGeometry x="320" y="60" width="80" height="20" as="geometry" />
        </mxCell>
        <mxCell id="K2zTh3eD51Z4YKB7R2rv-3" value="2" style="rounded=0;whiteSpace=wrap;html=1;fillColor=#dae8fc;strokeColor=#6c8ebf;" vertex="1" parent="1">
          <mxGeometry x="320" width="80" height="20" as="geometry" />
        </mxCell>
        <mxCell id="K2zTh3eD51Z4YKB7R2rv-4" value="5" style="rounded=0;whiteSpace=wrap;html=1;fillColor=#fff2cc;strokeColor=#d6b656;" vertex="1" parent="1">
          <mxGeometry x="320" y="20" width="80" height="20" as="geometry" />
        </mxCell>
        <mxCell id="K2zTh3eD51Z4YKB7R2rv-5" value="3" style="rounded=0;whiteSpace=wrap;html=1;fillColor=#fff2cc;strokeColor=#d6b656;" vertex="1" parent="1">
          <mxGeometry x="320" y="40" width="80" height="20" as="geometry" />
        </mxCell>
        <mxCell id="K2zTh3eD51Z4YKB7R2rv-6" value="2" style="rounded=0;whiteSpace=wrap;html=1;" vertex="1" parent="1">
          <mxGeometry x="320" y="80" width="80" height="20" as="geometry" />
        </mxCell>
        <mxCell id="K2zTh3eD51Z4YKB7R2rv-7" value="2" style="rounded=0;whiteSpace=wrap;html=1;" vertex="1" parent="1">
          <mxGeometry x="320" y="100" width="80" height="20" as="geometry" />
        </mxCell>
        <mxCell id="K2zTh3eD51Z4YKB7R2rv-8" value="2" style="rounded=0;whiteSpace=wrap;html=1;" vertex="1" parent="1">
          <mxGeometry x="320" y="120" width="80" height="20" as="geometry" />
        </mxCell>
        <mxCell id="K2zTh3eD51Z4YKB7R2rv-9" value="2" style="rounded=0;whiteSpace=wrap;html=1;" vertex="1" parent="1">
          <mxGeometry x="320" y="140" width="80" height="20" as="geometry" />
        </mxCell>
        <mxCell id="K2zTh3eD51Z4YKB7R2rv-10" value="2" style="rounded=0;whiteSpace=wrap;html=1;" vertex="1" parent="1">
          <mxGeometry x="320" y="160" width="80" height="20" as="geometry" />
        </mxCell>
        <mxCell id="K2zTh3eD51Z4YKB7R2rv-11" value="2" style="rounded=0;whiteSpace=wrap;html=1;" vertex="1" parent="1">
          <mxGeometry x="320" y="180" width="80" height="20" as="geometry" />
        </mxCell>
        <mxCell id="K2zTh3eD51Z4YKB7R2rv-12" value="2" style="rounded=0;whiteSpace=wrap;html=1;" vertex="1" parent="1">
          <mxGeometry x="320" y="200" width="80" height="20" as="geometry" />
        </mxCell>
        <mxCell id="K2zTh3eD51Z4YKB7R2rv-14" value="secret" style="text;html=1;strokeColor=none;fillColor=none;align=left;verticalAlign=middle;whiteSpace=wrap;rounded=0;" vertex="1" parent="1">
          <mxGeometry x="400" y="60" width="60" height="20" as="geometry" />
        </mxCell>
        <mxCell id="K2zTh3eD51Z4YKB7R2rv-16" value="a1_length" style="text;html=1;strokeColor=none;fillColor=none;align=left;verticalAlign=middle;whiteSpace=wrap;rounded=0;" vertex="1" parent="1">
          <mxGeometry x="400" width="60" height="20" as="geometry" />
        </mxCell>
        <mxCell id="K2zTh3eD51Z4YKB7R2rv-18" value="" style="rounded=0;whiteSpace=wrap;html=1;" vertex="1" parent="1">
          <mxGeometry x="190" y="100" width="80" height="20" as="geometry" />
        </mxCell>
        <mxCell id="K2zTh3eD51Z4YKB7R2rv-19" value="" style="rounded=0;whiteSpace=wrap;html=1;" vertex="1" parent="1">
          <mxGeometry x="190" y="120" width="80" height="20" as="geometry" />
        </mxCell>
        <mxCell id="K2zTh3eD51Z4YKB7R2rv-20" value="" style="rounded=0;whiteSpace=wrap;html=1;" vertex="1" parent="1">
          <mxGeometry x="190" y="140" width="80" height="20" as="geometry" />
        </mxCell>
        <mxCell id="K2zTh3eD51Z4YKB7R2rv-21" value="7" style="rounded=0;whiteSpace=wrap;html=1;fillColor=#ffe6cc;strokeColor=#d79b00;" vertex="1" parent="1">
          <mxGeometry x="320" y="220" width="80" height="20" as="geometry" />
        </mxCell>
        <mxCell id="K2zTh3eD51Z4YKB7R2rv-34" value="a1" style="text;html=1;strokeColor=none;fillColor=none;align=left;verticalAlign=middle;whiteSpace=wrap;rounded=0;" vertex="1" parent="1">
          <mxGeometry x="400" y="20" width="60" height="20" as="geometry" />
        </mxCell>
        <mxCell id="K2zTh3eD51Z4YKB7R2rv-35" value="a2" style="text;html=1;strokeColor=none;fillColor=none;align=left;verticalAlign=middle;whiteSpace=wrap;rounded=0;" vertex="1" parent="1">
          <mxGeometry x="400" y="80" width="60" height="20" as="geometry" />
        </mxCell>
        <mxCell id="K2zTh3eD51Z4YKB7R2rv-36" value="2" style="rounded=0;whiteSpace=wrap;html=1;" vertex="1" parent="1">
          <mxGeometry x="320" y="80" width="80" height="20" as="geometry" />
        </mxCell>
        <mxCell id="K2zTh3eD51Z4YKB7R2rv-37" value="2" style="rounded=0;whiteSpace=wrap;html=1;" vertex="1" parent="1">
          <mxGeometry x="320" y="100" width="80" height="20" as="geometry" />
        </mxCell>
        <mxCell id="K2zTh3eD51Z4YKB7R2rv-38" value="2" style="rounded=0;whiteSpace=wrap;html=1;" vertex="1" parent="1">
          <mxGeometry x="320" y="120" width="80" height="20" as="geometry" />
        </mxCell>
        <mxCell id="K2zTh3eD51Z4YKB7R2rv-39" value="2" style="rounded=0;whiteSpace=wrap;html=1;" vertex="1" parent="1">
          <mxGeometry x="320" y="140" width="80" height="20" as="geometry" />
        </mxCell>
        <mxCell id="K2zTh3eD51Z4YKB7R2rv-40" value="2" style="rounded=0;whiteSpace=wrap;html=1;" vertex="1" parent="1">
          <mxGeometry x="320" y="160" width="80" height="20" as="geometry" />
        </mxCell>
        <mxCell id="K2zTh3eD51Z4YKB7R2rv-41" value="2" style="rounded=0;whiteSpace=wrap;html=1;" vertex="1" parent="1">
          <mxGeometry x="320" y="180" width="80" height="20" as="geometry" />
        </mxCell>
        <mxCell id="K2zTh3eD51Z4YKB7R2rv-42" value="2" style="rounded=0;whiteSpace=wrap;html=1;" vertex="1" parent="1">
          <mxGeometry x="320" y="200" width="80" height="20" as="geometry" />
        </mxCell>
        <mxCell id="K2zTh3eD51Z4YKB7R2rv-43" value="9" style="rounded=0;whiteSpace=wrap;html=1;fillColor=#ffe6cc;strokeColor=#d79b00;" vertex="1" parent="1">
          <mxGeometry x="320" y="80" width="80" height="20" as="geometry" />
        </mxCell>
        <mxCell id="K2zTh3eD51Z4YKB7R2rv-44" value="6" style="rounded=0;whiteSpace=wrap;html=1;fillColor=#ffe6cc;strokeColor=#d79b00;" vertex="1" parent="1">
          <mxGeometry x="320" y="100" width="80" height="20" as="geometry" />
        </mxCell>
        <mxCell id="K2zTh3eD51Z4YKB7R2rv-45" value="8" style="rounded=0;whiteSpace=wrap;html=1;fillColor=#ffe6cc;strokeColor=#d79b00;" vertex="1" parent="1">
          <mxGeometry x="320" y="120" width="80" height="20" as="geometry" />
        </mxCell>
        <mxCell id="K2zTh3eD51Z4YKB7R2rv-46" value="3" style="rounded=0;whiteSpace=wrap;html=1;fillColor=#ffe6cc;strokeColor=#d79b00;" vertex="1" parent="1">
          <mxGeometry x="320" y="140" width="80" height="20" as="geometry" />
        </mxCell>
        <mxCell id="K2zTh3eD51Z4YKB7R2rv-47" value="0" style="rounded=0;whiteSpace=wrap;html=1;fillColor=#ffe6cc;strokeColor=#d79b00;" vertex="1" parent="1">
          <mxGeometry x="320" y="160" width="80" height="20" as="geometry" />
        </mxCell>
        <mxCell id="K2zTh3eD51Z4YKB7R2rv-48" value="1" style="rounded=0;whiteSpace=wrap;html=1;fillColor=#ffe6cc;strokeColor=#d79b00;" vertex="1" parent="1">
          <mxGeometry x="320" y="180" width="80" height="20" as="geometry" />
        </mxCell>
        <mxCell id="K2zTh3eD51Z4YKB7R2rv-49" value="4" style="rounded=0;whiteSpace=wrap;html=1;fillColor=#ffe6cc;strokeColor=#d79b00;" vertex="1" parent="1">
          <mxGeometry x="320" y="200" width="80" height="20" as="geometry" />
        </mxCell>
        <mxCell id="K2zTh3eD51Z4YKB7R2rv-50" value="1" style="rounded=0;whiteSpace=wrap;html=1;fillColor=#d5e8d4;strokeColor=#82b366;" vertex="1" parent="1">
          <mxGeometry x="190" y="80" width="80" height="20" as="geometry" />
        </mxCell>
        <mxCell id="K2zTh3eD51Z4YKB7R2rv-51" value="secret" style="text;html=1;strokeColor=none;fillColor=none;align=left;verticalAlign=middle;whiteSpace=wrap;rounded=0;" vertex="1" parent="1">
          <mxGeometry x="270" y="80" width="40" height="20" as="geometry" />
        </mxCell>
        <mxCell id="9LSa7fA5-okWeEQ-aWn5-1" value="Memory" style="text;html=1;strokeColor=none;fillColor=none;align=center;verticalAlign=middle;whiteSpace=wrap;rounded=0;" vertex="1" parent="1">
          <mxGeometry x="320" y="240" width="80" height="20" as="geometry" />
        </mxCell>
        <mxCell id="9LSa7fA5-okWeEQ-aWn5-2" value="Cache" style="text;html=1;strokeColor=none;fillColor=none;align=center;verticalAlign=middle;whiteSpace=wrap;rounded=0;" vertex="1" parent="1">
          <mxGeometry x="190" y="160" width="80" height="20" as="geometry" />
        </mxCell>
      </root>
    </mxGraphModel>
  </diagram>
  <diagram name="Copy of Page-1" id="gNRB2lJcgp4PBwHWL59h">
    <mxGraphModel dx="593" dy="394" grid="1" gridSize="10" guides="1" tooltips="1" connect="1" arrows="1" fold="1" page="1" pageScale="1" pageWidth="520" pageHeight="250" math="0" shadow="0">
      <root>
        <mxCell id="1PNqw6Yq_iX2IBtElfv8-0" />
        <mxCell id="1PNqw6Yq_iX2IBtElfv8-1" parent="1PNqw6Yq_iX2IBtElfv8-0" />
        <mxCell id="1PNqw6Yq_iX2IBtElfv8-6" value="2" style="rounded=0;whiteSpace=wrap;html=1;" vertex="1" parent="1PNqw6Yq_iX2IBtElfv8-1">
          <mxGeometry x="320" y="80" width="80" height="20" as="geometry" />
        </mxCell>
        <mxCell id="1PNqw6Yq_iX2IBtElfv8-7" value="2" style="rounded=0;whiteSpace=wrap;html=1;" vertex="1" parent="1PNqw6Yq_iX2IBtElfv8-1">
          <mxGeometry x="320" y="100" width="80" height="20" as="geometry" />
        </mxCell>
        <mxCell id="1PNqw6Yq_iX2IBtElfv8-8" value="2" style="rounded=0;whiteSpace=wrap;html=1;" vertex="1" parent="1PNqw6Yq_iX2IBtElfv8-1">
          <mxGeometry x="320" y="120" width="80" height="20" as="geometry" />
        </mxCell>
        <mxCell id="1PNqw6Yq_iX2IBtElfv8-9" value="2" style="rounded=0;whiteSpace=wrap;html=1;" vertex="1" parent="1PNqw6Yq_iX2IBtElfv8-1">
          <mxGeometry x="320" y="140" width="80" height="20" as="geometry" />
        </mxCell>
        <mxCell id="1PNqw6Yq_iX2IBtElfv8-10" value="2" style="rounded=0;whiteSpace=wrap;html=1;" vertex="1" parent="1PNqw6Yq_iX2IBtElfv8-1">
          <mxGeometry x="320" y="160" width="80" height="20" as="geometry" />
        </mxCell>
        <mxCell id="1PNqw6Yq_iX2IBtElfv8-11" value="2" style="rounded=0;whiteSpace=wrap;html=1;" vertex="1" parent="1PNqw6Yq_iX2IBtElfv8-1">
          <mxGeometry x="320" y="180" width="80" height="20" as="geometry" />
        </mxCell>
        <mxCell id="1PNqw6Yq_iX2IBtElfv8-12" value="2" style="rounded=0;whiteSpace=wrap;html=1;" vertex="1" parent="1PNqw6Yq_iX2IBtElfv8-1">
          <mxGeometry x="320" y="200" width="80" height="20" as="geometry" />
        </mxCell>
        <mxCell id="1PNqw6Yq_iX2IBtElfv8-16" value="" style="rounded=0;whiteSpace=wrap;html=1;" vertex="1" parent="1PNqw6Yq_iX2IBtElfv8-1">
          <mxGeometry x="190" y="120" width="80" height="20" as="geometry" />
        </mxCell>
        <mxCell id="1PNqw6Yq_iX2IBtElfv8-17" value="" style="rounded=0;whiteSpace=wrap;html=1;" vertex="1" parent="1PNqw6Yq_iX2IBtElfv8-1">
          <mxGeometry x="190" y="140" width="80" height="20" as="geometry" />
        </mxCell>
        <mxCell id="1PNqw6Yq_iX2IBtElfv8-18" value="7" style="rounded=0;whiteSpace=wrap;html=1;fillColor=#ffe6cc;strokeColor=#d79b00;" vertex="1" parent="1PNqw6Yq_iX2IBtElfv8-1">
          <mxGeometry x="320" y="220" width="80" height="20" as="geometry" />
        </mxCell>
        <mxCell id="1PNqw6Yq_iX2IBtElfv8-20" value="a2" style="text;html=1;strokeColor=none;fillColor=none;align=left;verticalAlign=middle;whiteSpace=wrap;rounded=0;" vertex="1" parent="1PNqw6Yq_iX2IBtElfv8-1">
          <mxGeometry x="400" y="80" width="60" height="20" as="geometry" />
        </mxCell>
        <mxCell id="1PNqw6Yq_iX2IBtElfv8-21" value="2" style="rounded=0;whiteSpace=wrap;html=1;" vertex="1" parent="1PNqw6Yq_iX2IBtElfv8-1">
          <mxGeometry x="320" y="80" width="80" height="20" as="geometry" />
        </mxCell>
        <mxCell id="1PNqw6Yq_iX2IBtElfv8-22" value="2" style="rounded=0;whiteSpace=wrap;html=1;" vertex="1" parent="1PNqw6Yq_iX2IBtElfv8-1">
          <mxGeometry x="320" y="100" width="80" height="20" as="geometry" />
        </mxCell>
        <mxCell id="1PNqw6Yq_iX2IBtElfv8-23" value="2" style="rounded=0;whiteSpace=wrap;html=1;" vertex="1" parent="1PNqw6Yq_iX2IBtElfv8-1">
          <mxGeometry x="320" y="120" width="80" height="20" as="geometry" />
        </mxCell>
        <mxCell id="1PNqw6Yq_iX2IBtElfv8-24" value="2" style="rounded=0;whiteSpace=wrap;html=1;" vertex="1" parent="1PNqw6Yq_iX2IBtElfv8-1">
          <mxGeometry x="320" y="140" width="80" height="20" as="geometry" />
        </mxCell>
        <mxCell id="1PNqw6Yq_iX2IBtElfv8-25" value="2" style="rounded=0;whiteSpace=wrap;html=1;" vertex="1" parent="1PNqw6Yq_iX2IBtElfv8-1">
          <mxGeometry x="320" y="160" width="80" height="20" as="geometry" />
        </mxCell>
        <mxCell id="1PNqw6Yq_iX2IBtElfv8-26" value="2" style="rounded=0;whiteSpace=wrap;html=1;" vertex="1" parent="1PNqw6Yq_iX2IBtElfv8-1">
          <mxGeometry x="320" y="180" width="80" height="20" as="geometry" />
        </mxCell>
        <mxCell id="1PNqw6Yq_iX2IBtElfv8-27" value="2" style="rounded=0;whiteSpace=wrap;html=1;" vertex="1" parent="1PNqw6Yq_iX2IBtElfv8-1">
          <mxGeometry x="320" y="200" width="80" height="20" as="geometry" />
        </mxCell>
        <mxCell id="1PNqw6Yq_iX2IBtElfv8-28" value="9" style="rounded=0;whiteSpace=wrap;html=1;fillColor=#ffe6cc;strokeColor=#d79b00;" vertex="1" parent="1PNqw6Yq_iX2IBtElfv8-1">
          <mxGeometry x="320" y="80" width="80" height="20" as="geometry" />
        </mxCell>
        <mxCell id="1PNqw6Yq_iX2IBtElfv8-29" value="6" style="rounded=0;whiteSpace=wrap;html=1;fillColor=#ffe6cc;strokeColor=#d79b00;" vertex="1" parent="1PNqw6Yq_iX2IBtElfv8-1">
          <mxGeometry x="320" y="100" width="80" height="20" as="geometry" />
        </mxCell>
        <mxCell id="1PNqw6Yq_iX2IBtElfv8-30" value="8" style="rounded=0;whiteSpace=wrap;html=1;fillColor=#ffe6cc;strokeColor=#d79b00;" vertex="1" parent="1PNqw6Yq_iX2IBtElfv8-1">
          <mxGeometry x="320" y="120" width="80" height="20" as="geometry" />
        </mxCell>
        <mxCell id="1PNqw6Yq_iX2IBtElfv8-31" value="3" style="rounded=0;whiteSpace=wrap;html=1;fillColor=#ffe6cc;strokeColor=#d79b00;" vertex="1" parent="1PNqw6Yq_iX2IBtElfv8-1">
          <mxGeometry x="320" y="140" width="80" height="20" as="geometry" />
        </mxCell>
        <mxCell id="1PNqw6Yq_iX2IBtElfv8-32" value="0" style="rounded=0;whiteSpace=wrap;html=1;fillColor=#ffe6cc;strokeColor=#d79b00;" vertex="1" parent="1PNqw6Yq_iX2IBtElfv8-1">
          <mxGeometry x="320" y="160" width="80" height="20" as="geometry" />
        </mxCell>
        <mxCell id="1PNqw6Yq_iX2IBtElfv8-33" value="1" style="rounded=0;whiteSpace=wrap;html=1;fillColor=#ffe6cc;strokeColor=#d79b00;" vertex="1" parent="1PNqw6Yq_iX2IBtElfv8-1">
          <mxGeometry x="320" y="180" width="80" height="20" as="geometry" />
        </mxCell>
        <mxCell id="1PNqw6Yq_iX2IBtElfv8-34" value="4" style="rounded=0;whiteSpace=wrap;html=1;fillColor=#ffe6cc;strokeColor=#d79b00;" vertex="1" parent="1PNqw6Yq_iX2IBtElfv8-1">
          <mxGeometry x="320" y="200" width="80" height="20" as="geometry" />
        </mxCell>
        <mxCell id="1PNqw6Yq_iX2IBtElfv8-35" value="1" style="rounded=0;whiteSpace=wrap;html=1;fillColor=#d5e8d4;strokeColor=#82b366;" vertex="1" parent="1PNqw6Yq_iX2IBtElfv8-1">
          <mxGeometry x="190" y="80" width="80" height="20" as="geometry" />
        </mxCell>
        <mxCell id="1PNqw6Yq_iX2IBtElfv8-36" value="secret" style="text;html=1;strokeColor=none;fillColor=none;align=left;verticalAlign=middle;whiteSpace=wrap;rounded=0;" vertex="1" parent="1PNqw6Yq_iX2IBtElfv8-1">
          <mxGeometry x="270" y="80" width="60" height="20" as="geometry" />
        </mxCell>
        <mxCell id="jw_PfXPlLr7SlH4kOCZ0-0" value="6" style="rounded=0;whiteSpace=wrap;html=1;fillColor=#ffe6cc;strokeColor=#d79b00;" vertex="1" parent="1PNqw6Yq_iX2IBtElfv8-1">
          <mxGeometry x="190" y="100" width="80" height="20" as="geometry" />
        </mxCell>
        <mxCell id="jw_PfXPlLr7SlH4kOCZ0-1" value="a2[1]" style="text;html=1;strokeColor=none;fillColor=none;align=left;verticalAlign=middle;whiteSpace=wrap;rounded=0;" vertex="1" parent="1PNqw6Yq_iX2IBtElfv8-1">
          <mxGeometry x="270" y="100" width="60" height="20" as="geometry" />
        </mxCell>
        <mxCell id="k3T93ESBYTw8vAatkhyQ-0" value="Memory" style="text;html=1;strokeColor=none;fillColor=none;align=center;verticalAlign=middle;whiteSpace=wrap;rounded=0;" vertex="1" parent="1PNqw6Yq_iX2IBtElfv8-1">
          <mxGeometry x="320" y="240" width="80" height="20" as="geometry" />
        </mxCell>
        <mxCell id="k3T93ESBYTw8vAatkhyQ-1" value="Cache" style="text;html=1;strokeColor=none;fillColor=none;align=center;verticalAlign=middle;whiteSpace=wrap;rounded=0;" vertex="1" parent="1PNqw6Yq_iX2IBtElfv8-1">
          <mxGeometry x="190" y="160" width="80" height="20" as="geometry" />
        </mxCell>
        <mxCell id="aBtg185zn7tWnl6ds6LP-0" value="1" style="rounded=0;whiteSpace=wrap;html=1;fillColor=#d5e8d4;strokeColor=#82b366;" vertex="1" parent="1PNqw6Yq_iX2IBtElfv8-1">
          <mxGeometry x="320" y="60" width="80" height="20" as="geometry" />
        </mxCell>
        <mxCell id="aBtg185zn7tWnl6ds6LP-1" value="2" style="rounded=0;whiteSpace=wrap;html=1;fillColor=#dae8fc;strokeColor=#6c8ebf;" vertex="1" parent="1PNqw6Yq_iX2IBtElfv8-1">
          <mxGeometry x="320" width="80" height="20" as="geometry" />
        </mxCell>
        <mxCell id="aBtg185zn7tWnl6ds6LP-2" value="5" style="rounded=0;whiteSpace=wrap;html=1;fillColor=#fff2cc;strokeColor=#d6b656;" vertex="1" parent="1PNqw6Yq_iX2IBtElfv8-1">
          <mxGeometry x="320" y="20" width="80" height="20" as="geometry" />
        </mxCell>
        <mxCell id="aBtg185zn7tWnl6ds6LP-3" value="3" style="rounded=0;whiteSpace=wrap;html=1;fillColor=#fff2cc;strokeColor=#d6b656;" vertex="1" parent="1PNqw6Yq_iX2IBtElfv8-1">
          <mxGeometry x="320" y="40" width="80" height="20" as="geometry" />
        </mxCell>
        <mxCell id="aBtg185zn7tWnl6ds6LP-4" value="secret" style="text;html=1;strokeColor=none;fillColor=none;align=left;verticalAlign=middle;whiteSpace=wrap;rounded=0;" vertex="1" parent="1PNqw6Yq_iX2IBtElfv8-1">
          <mxGeometry x="400" y="60" width="60" height="20" as="geometry" />
        </mxCell>
        <mxCell id="aBtg185zn7tWnl6ds6LP-5" value="a1_length" style="text;html=1;strokeColor=none;fillColor=none;align=left;verticalAlign=middle;whiteSpace=wrap;rounded=0;" vertex="1" parent="1PNqw6Yq_iX2IBtElfv8-1">
          <mxGeometry x="400" width="60" height="20" as="geometry" />
        </mxCell>
        <mxCell id="aBtg185zn7tWnl6ds6LP-6" value="a1" style="text;html=1;strokeColor=none;fillColor=none;align=left;verticalAlign=middle;whiteSpace=wrap;rounded=0;" vertex="1" parent="1PNqw6Yq_iX2IBtElfv8-1">
          <mxGeometry x="400" y="20" width="60" height="20" as="geometry" />
        </mxCell>
      </root>
    </mxGraphModel>
  </diagram>
</mxfile>
